# xmcd
#
# Track frame offsets: 
#        150
#        14113
#        30333
#        47988
#        79103
#        92370
#        107423
#        123270
#        149208
#
# Disc length: 2137 seconds
#
# Revision: 1
# Processed by: cddbd v1.5.2PL0 Copyright (c) Steve Scherf et al.
# Submitted via: ExactAudioCopy v1.0b2
#
DISCID=71085709
DTITLE=Sonny Rhodes - Disciple of the Blues
DYEAR=1991
DGENRE=Blues
TTITLE0=You Can Look for Me
TTITLE1=Blue Funky Down
TTITLE2=Ain't Nothing But the Blues
TTITLE3=Cigarette Blues
TTITLE4=Are We Losing Our Thing
TTITLE5=Ain't No Blues in Town
TTITLE6=Ya Ya
TTITLE7=Blue Shadows Falling
TTITLE8=Blue Thunder
EXTD=YEAR: 1991
EXTT0=
EXTT1=
EXTT2=
EXTT3=
EXTT4=
EXTT5=
EXTT6=
EXTT7=
EXTT8=
PLAYORDER=
